<svg xmlns="http://www.w3.org/2000/svg" id="Layer_1" data-name="Layer 1" viewBox="0 0 57.13 56.64"><path fill="#92d0ee" d="M49.21 23.48v23.5a4 4 0 0 1-3.94 4H9.7a3.92 3.92 0 0 1-3.39-2 4 4 0 0 1-.56-2V21.15a1.65 1.65 0 0 1 1.64-1.66h37.88a4 4 0 0 1 3.94 3.99Z"/><path fill="#123456" d="M9.7 51.49a4.39 4.39 0 0 1-3.82-2.17 4.53 4.53 0 0 1-.62-2.29V21.15a2.15 2.15 0 0 1 2.14-2.16h37.88a4.47 4.47 0 0 1 4.44 4.5v23.5a4.47 4.47 0 0 1-4.39 4.49Zm35.58-31.51H7.39a1.15 1.15 0 0 0-1.14 1.16v25.85a3.53 3.53 0 0 0 .49 1.79 3.4 3.4 0 0 0 3 1.71h35.59a3.47 3.47 0 0 0 3.44-3.5V23.48a3.47 3.47 0 0 0-3.49-3.5Z"/><rect width="30.09" height="19.73" x="29.59" y="12.89" fill="#92d0ee" rx="2.15" ry="2.15" transform="rotate(-56.9 38.492 23.804)"/><path fill="#123456" d="M40.39 35.75a2.62 2.62 0 0 1-1.44-.43l-12.94-8.43a2.65 2.65 0 0 1-.77-3.66L39.33 1.61a2.65 2.65 0 0 1 3.66-.77l12.94 8.43a2.65 2.65 0 0 1 .77 3.66L42.61 34.55a2.65 2.65 0 0 1-2.22 1.2Zm1.16-34.34a1.65 1.65 0 0 0-1.38.75L26.08 23.77a1.65 1.65 0 0 0 .48 2.28l12.93 8.43a1.65 1.65 0 0 0 2.28-.48l14.09-21.62a1.65 1.65 0 0 0-.53-2.27L42.45 1.68a1.63 1.63 0 0 0-.9-.27Zm14.73 11.25Z"/><path fill="#269dd8" d="m48.62 5.1-3.38-2.2a1.9 1.9 0 0 0-2.65.42L28.16 25.5a1.9 1.9 0 0 0 .65 2.61l3.38 2.21"/><path fill="#123456" d="M32.19 30.82a.5.5 0 0 1-.27-.08l-3.39-2.21a2.52 2.52 0 0 1-1.08-1.51 2.25 2.25 0 0 1 .29-1.79L42.17 3.08a2.25 2.25 0 0 1 1.52-1 2.53 2.53 0 0 1 1.82.38l3.39 2.21a.502.502 0 0 1-.55.84l-3.39-2.19a1.53 1.53 0 0 0-1.1-.24 1.26 1.26 0 0 0-.86.55L28.57 25.78a1.26 1.26 0 0 0-.16 1 1.53 1.53 0 0 0 .66.91l3.39 2.21a.5.5 0 0 1-.27.92Z"/><path fill="#92d0ee" d="M39.92 1.62 25.49 23.77a1.9 1.9 0 0 0 .65 2.61l3.09 2L45.65 3.17l-3.09-2a1.9 1.9 0 0 0-2.64.45Z"/><path fill="#123456" d="M29.22 28.88a.5.5 0 0 1-.27-.08l-3.09-2a2.52 2.52 0 0 1-1.08-1.48 2.25 2.25 0 0 1 .29-1.79L39.5 1.32a2.25 2.25 0 0 1 1.53-1 2.52 2.52 0 0 1 1.82.38l3.09 2a.5.5 0 0 1 .15.69L29.64 28.66a.5.5 0 0 1-.42.22ZM41.45 1.32h-.25a1.26 1.26 0 0 0-.85.55L25.91 24.04a1.26 1.26 0 0 0-.16 1 1.53 1.53 0 0 0 .66.91l2.67 1.74L44.96 3.32l-2.63-1.74a1.55 1.55 0 0 0-.88-.26Zm-1.52.3Z"/><path fill="#102c4e" d="M40.38 35.74a2.65 2.65 0 0 1-1.45-.42L26.02 26.9a2.66 2.66 0 0 1-.78-3.68l14.09-21.6a2.66 2.66 0 0 1 3.68-.78l12.91 8.42a2.66 2.66 0 0 1 .78 3.68l-14.09 21.6a2.66 2.66 0 0 1-2.23 1.2Zm1.18-34.33a1.7 1.7 0 0 0-.35 0 1.65 1.65 0 0 0-1 .72L26.09 23.76a1.66 1.66 0 0 0 .48 2.3l12.91 8.42a1.66 1.66 0 0 0 2.29-.48l14.08-21.61a1.66 1.66 0 0 0-.48-2.3L42.46 1.68a1.65 1.65 0 0 0-.9-.27Zm14.71 11.26Z"/><path fill="#269dd8" d="M39.91 4.19a1.41 1.41 0 0 0 .25 1.78l.52.34a1.41 1.41 0 0 0 1.72-.49 1.49 1.49 0 0 0-2.49-1.63Z"/><path fill="#269dd8" d="M38.63 6.18a1.41 1.41 0 0 0 .25 1.78l.52.34a1.41 1.41 0 0 0 1.72-.49 1.49 1.49 0 0 0-2.49-1.63Z"/><path fill="#d8eff7" d="M39.65 31.5a.5.5 0 0 1-.42-.77l8.36-12.78a.502.502 0 0 1 .84.55l-8.37 12.82a.5.5 0 0 1-.41.18Z"/><path fill="none" stroke="#d8eff7" stroke-linecap="round" stroke-linejoin="round" d="M37.24 29.42"/><rect width="4.57" height="3.39" x="52.7" y="15.62" fill="#269dd8" rx="1.7" ry="1.7" transform="rotate(-56.9 48.838 18.368)"/><rect width="30.09" height="19.73" x="5.36" y="12.89" fill="#92d0ee" rx="1.07" ry="1.07" transform="rotate(-123.1 17.3 21.413)"/><path fill="#123456" d="M17 36.16a1.57 1.57 0 0 1-1.32-.71L.42 12.03a1.57 1.57 0 0 1 .46-2.18L15.61.25a1.57 1.57 0 0 1 2.18.46l15.26 23.42a1.57 1.57 0 0 1-.46 2.19l-14.73 9.6a1.56 1.56 0 0 1-.86.24ZM16.47 1a.57.57 0 0 0-.31.09l-14.73 9.6a.57.57 0 0 0-.17.79L16.52 34.9a.57.57 0 0 0 .79.17l14.73-9.6a.57.57 0 0 0 .17-.79L16.95 1.26a.57.57 0 0 0-.36-.25Z"/><path fill="#123456" d="M6.75 15.72a.5.5 0 0 1-.42-.23l-2.21-3.38a.502.502 0 0 1 .84-.55l2.21 3.39a.5.5 0 0 1-.42.77ZM18.08 7.77a.5.5 0 0 1-.42-.23l-2.21-3.38a.519.519 0 1 1 .88-.55L18.54 7a.5.5 0 0 1-.42.77Z"/><path fill="none" stroke="#d8eff7" stroke-linecap="round" stroke-linejoin="round" d="M20.46 29.42"/><circle cx="15.96" cy="16.88" r="4.29" fill="#269dd8"/><path fill="#123456" d="M15.95 21.67a4.79 4.79 0 1 1 4.79-4.79 4.79 4.79 0 0 1-4.79 4.79Zm0-8.58a3.79 3.79 0 1 0 3.79 3.79 3.79 3.79 0 0 0-3.79-3.79Z"/><path fill="#d8eff7" d="m20.75.76 15.19.09a2.5 2.5 0 0 1 2.3 1.47 2.09 2.09 0 0 1 .18.87l-.15 26.84a2.4 2.4 0 0 1-2.51 2.29l-15.19-.09a2.4 2.4 0 0 1-2.48-2.31l.15-26.84A2.4 2.4 0 0 1 20.75.76Z"/><path fill="#123456" d="M21.39 32.72a.51.51 0 0 1-.51-.5.49.49 0 0 1 .49-.5.5.5 0 0 1 0 1ZM18.62 31.83a.5.5 0 0 1-.38-.18 2.69 2.69 0 0 1-.65-1.76v-1.43a.5.5 0 0 1 .5-.5.5.5 0 0 1 .5.5v1.44a1.7 1.7 0 0 0 .41 1.11.5.5 0 0 1-.38.82ZM18.11 25.96a.5.5 0 0 1-.5-.5v-3a.5.5 0 0 1 .5-.5.5.5 0 0 1 .5.5v3a.5.5 0 0 1-.5.5ZM18.14 19.96a.5.5 0 0 1-.5-.5v-3a.53.53 0 0 1 .5-.5.5.5 0 0 1 .5.5v3a.5.5 0 0 1-.5.5ZM18.18 13.96a.5.5 0 0 1-.5-.5v-3a.5.5 0 0 1 .5-.5.5.5 0 0 1 .5.5v3a.5.5 0 0 1-.5.5ZM18.21 7.96a.5.5 0 0 1-.5-.5v-3a.5.5 0 0 1 .5-.5.5.5 0 0 1 .5.5v3a.5.5 0 0 1-.5.5ZM18.8 2.1a.5.5 0 0 1-.37-.83 3.09 3.09 0 0 1 2.32-1h.82a.5.5 0 0 1 0 1h-.82a2.09 2.09 0 0 0-1.57.67.5.5 0 0 1-.38.16ZM34.42 32.79h-3a.5.5 0 0 1 0-1h3a.5.5 0 0 1 0 1ZM37.33 32.32a.5.5 0 0 1-.29-.9 1.73 1.73 0 0 0 .74-1.39v-.9c0-.28.23-.55.5-.5a.5.5 0 0 1 .5.5v.9a2.72 2.72 0 0 1-1.15 2.19.5.5 0 0 1-.3.1ZM38.33 26.61a.5.5 0 0 1-.5-.5v-3a.5.5 0 0 1 .5-.5.5.5 0 0 1 .5.5v3a.5.5 0 0 1-.5.5ZM38.33 20.62a.5.5 0 0 1-.5-.5v-3a.5.5 0 0 1 .5-.5.5.5 0 0 1 .5.5v3a.5.5 0 0 1-.5.5ZM38.33 14.62a.5.5 0 0 1-.5-.5v-3a.5.5 0 0 1 .5-.5.5.5 0 0 1 .5.5v3a.5.5 0 0 1-.5.5ZM38.39 8.62a.5.5 0 0 1-.5-.5v-3a.5.5 0 0 1 .5-.5.5.5 0 0 1 .5.5v3a.5.5 0 0 1-.5.5ZM38.17 2.66a.5.5 0 0 1-.45-.27 2 2 0 0 0-1.79-1.07h-.28a.5.5 0 0 1-.5-.5.52.52 0 0 1 .5-.5h.28a3 3 0 0 1 2.68 1.58.5.5 0 0 1-.45.73ZM32.66 1.32h-3a.5.5 0 0 1 0-1h3a.5.5 0 0 1 0 1Z"/><rect width="31.9" height="5.19" x="12.72" y="18.52" fill="#123456" rx="1.05" ry="1.05" transform="rotate(-89.68 24.491 20.625)"/><path fill="#92d0ee" d="M49.65 27.37v23.5a4 4 0 0 1-4 4H9.55a4 4 0 0 1-4-4V25.05a1.66 1.66 0 0 1 1.66-1.66h38.44a4 4 0 0 1 4 3.98Z"/><path fill="#123456" d="M9.55 55.38a4.5 4.5 0 0 1-4.5-4.5V25.05a2.16 2.16 0 0 1 2.16-2.16h38.44a4.5 4.5 0 0 1 4.5 4.5v23.5a4.5 4.5 0 0 1-4.5 4.5H9.55Zm36.1-31.51H7.21a1.16 1.16 0 0 0-1.16 1.16v25.86a3.5 3.5 0 0 0 3.5 3.5h36.11a3.5 3.5 0 0 0 3.5-3.5V27.37a3.5 3.5 0 0 0-3.5-3.5Zm4.5 3.5Z"/><path fill="#d8eff7" d="M11.62 23.19h3.17v31.82h-3.17zM39.41 23.18h3.17V55h-3.17z"/><path fill="#123456" d="M9.55 55.38a4.5 4.5 0 0 1-4.5-4.5V25.05a2.16 2.16 0 0 1 2.16-2.16h38.44a4.5 4.5 0 0 1 4.5 4.5v23.5a4.5 4.5 0 0 1-4.5 4.5H9.55Zm36.1-31.51H7.21a1.16 1.16 0 0 0-1.16 1.16v25.86a3.5 3.5 0 0 0 3.5 3.5h36.11a3.5 3.5 0 0 0 3.5-3.5V27.37a3.5 3.5 0 0 0-3.5-3.5Zm4.5 3.5Z"/><rect width="11.5" height="7.91" x="45.62" y="39.81" fill="#269dd8" rx="1.55" ry="1.55" transform="rotate(178.95 49.56 41.413)"/><path fill="#123456" d="M43.55 43.62a2.05 2.05 0 0 1-2-2l-.09-4.8a2.05 2.05 0 0 1 2-2.09l8.39-.15a2.11 2.11 0 0 1 1.46.57 2 2 0 0 1 .63 1.44l.09 4.8a2.05 2.05 0 0 1-2 2.09l-8.39.15Zm-.11-7.91a1.05 1.05 0 0 0-1 1.07l.09 4.8a1 1 0 0 0 .32.74 1.08 1.08 0 0 0 .75.29l8.39-.15a1.05 1.05 0 0 0 1-1.07l-.09-4.8a1 1 0 0 0-.32-.74 1.07 1.07 0 0 0-.75-.29l-8.39.15Zm0-.5Z"/><circle cx="50.12" cy="43.73" r="1.82" fill="#91cfee" transform="rotate(-1.05 -206.852 241.489)"/><path fill="#113f68" fill-rule="evenodd" d="M22.48 35.77a.84.84 0 0 0 .34-.08 1.68 1.68 0 0 1 .79-.27 2.84 2.84 0 0 1 1.19.41.71.71 0 0 0 .55-.06 1.83 1.83 0 0 0 .32-1.3c-.18-1-.9-2.35-.47-3.37.75-1.78 3.13-2.45 3.13-2.45s-.09 1.43-.12 2.61v1.38c-.06.35 1 5.07 2.09 6a7.58 7.58 0 0 0 2.47 1.8s-.38-.12-.41-.07a.24.24 0 0 0 .12.24 17 17 0 0 0-3.15-1.29 40.12 40.12 0 0 1-4.11-1c-1.14-.52-1.06-1.55-2.42-2.09a22.43 22.43 0 0 0-3.08-.91l2.76.43"/><path fill="#133b62" fill-rule="evenodd" d="M29.83 37.12a16 16 0 0 1 2-3.39c1.22-1.66 2.65-3.25 2.65-3.25a18.33 18.33 0 0 0-3.27.78 17.36 17.36 0 0 0-1.82.77 24.67 24.67 0 0 0 .4 5.35 1.4 1.4 0 0 1 0-.26"/><path fill="#10375b" fill-rule="evenodd" d="M29.41 32.02c-.69.33-1.18.62-1.18.62-.06.35 1 5.07 2.09 6a2.08 2.08 0 0 1-.52-1.31 24.67 24.67 0 0 1-.4-5.35"/><path fill="#113f68" fill-rule="evenodd" d="M22.33 44.18h-1.51l-.08-2.86v-.05h1.59a1.36 1.36 0 0 1 1.49 1.44 1.38 1.38 0 0 1-1.49 1.47Zm.06-3.52h-2.34v6.78h.67v-2.66h1.68a2.06 2.06 0 1 0 0-4.12ZM28.52 45.15a1.69 1.69 0 0 1-1.47 1.81 1 1 0 0 1-1.09-.91c0-1.07 1.52-1.11 2.28-1.11h.28v.21Zm-1.19-2.71a2.79 2.79 0 0 0-1.72.56l.31.5a2.36 2.36 0 0 1 1.41-.48c.69 0 1.21.31 1.21 1.25v.13h-.27c-.84 0-3 .06-3 1.7a1.5 1.5 0 0 0 1.66 1.43 1.75 1.75 0 0 0 1.61-1.06 3.82 3.82 0 0 0 0 .4v.53h.63v-3.11a1.65 1.65 0 0 0-1.84-1.85ZM33.87 42.51l-1.37 3.55a4.53 4.53 0 0 0-.16.51s-.08-.27-.18-.51l-1.45-3.53h-.72l2.03 4.79-.29.69c-.19.45-.49.8-.91.8a1 1 0 0 1-.58-.22l-.25.52a1.44 1.44 0 0 0 .85.28 1.5 1.5 0 0 0 1.39-1l2.35-5.88h-.71"/><path fill="#faa919" d="M9.01 52.81a8.21 8.21 0 0 1-8.06-6.67 8.21 8.21 0 1 0 16.13 0 8.21 8.21 0 0 1-8.07 6.67Z"/><path fill="#ffcc07" d="M9.01 52.81a8.21 8.21 0 0 0 8.06-6.67 8.21 8.21 0 0 0-16.13 0 8.21 8.21 0 0 0 8.07 6.67Z"/><path fill="#123456" d="M8.98 56.63a9 9 0 1 1 9-9 9 9 0 0 1-9 9Zm0-17a8 8 0 1 0 8 8 8 8 0 0 0-8-7.95Z"/><path fill="#289ed8" d="M13.62 44.08a1.1 1.1 0 0 0-1.55.18l-4.25 5.4-2-2a1.1 1.1 0 0 0-1.49 1.52l2.83 2.94a1.11 1.11 0 0 0 .79.34h.06a1.1 1.1 0 0 0 .81-.42l5-6.4a1.11 1.11 0 0 0-.2-1.56Z"/></svg>