<svg xmlns="http://www.w3.org/2000/svg" id="Layer_1" data-name="Layer 1" viewBox="0 0 57.6 57.12"><path fill="#92cfeb" d="M23.61 1.06 1.46 5.69a1.21 1.21 0 0 0-.94 1.43l2.78 13.5 24.52-5.11-2.77-13.45a1.21 1.21 0 0 0-1.44-1Z"/><path fill="#d8eff7" d="m3.3 20.62.12.55 6.88 33.89a1.69 1.69 0 0 0 2 1.32l21.22-4.42a1.69 1.69 0 0 0 1.31-2l-7-34.48Z"/><path fill="#92d0ee" d="M13.11 35.77a.5.5 0 0 1-.49-.4L10.3 24.06a.51.51 0 1 1 1-.2l2.3 11.31a.5.5 0 0 1-.39.59ZM18.93 34.56a.5.5 0 0 1-.49-.4l-2.35-11.27a.51.51 0 0 1 1-.2l2.35 11.27a.5.5 0 0 1-.39.59ZM24.84 33.33a.5.5 0 0 1-.49-.4L22 21.66a.51.51 0 1 1 1-.2l2.3 11.26a.5.5 0 0 1-.39.59Z"/><path fill="#289ed8" d="M3.3 21a.38.38 0 0 1 0-.74l2-.41a.38.38 0 1 1 .15.73l-2 .41ZM7.3 20.18a.38.38 0 0 1-.08-.74l2-.41a.38.38 0 1 1 .15.73l-2 .41ZM11.17 19.37a.38.38 0 0 1-.08-.74l2-.41a.38.38 0 0 1 .15.73l-2 .41Z"/><path fill="#123456" d="M12 56.94a2.19 2.19 0 0 1-2.14-1.75l-7-34.46L.03 7.22a1.71 1.71 0 0 1 1.33-2L23.51.58a1.71 1.71 0 0 1 2 1.33l2.79 13.5 7 34.48a2.19 2.19 0 0 1-1.7 2.58l-21.15 4.42a2.21 2.21 0 0 1-.45.05ZM23.86 1.55h-.15L1.56 6.17a.71.71 0 0 0-.55.84l2.93 14.05 6.9 33.91a1.19 1.19 0 0 0 1.41.93l21.22-4.42a1.19 1.19 0 0 0 .92-1.4l-7-34.48-2.83-13.49a.71.71 0 0 0-.7-.56ZM1.46 5.69Z"/><rect width="8.79" height="8.79" x="13.35" y="10.18" fill="#289ed8" rx="4.4" ry="4.4" transform="rotate(-11.76 -3.247 30.576)"/><path fill="#d8eff6" d="M40.7 56.56a.87.87 0 0 1-.31.06H14.12a1.12 1.12 0 0 1-1-1.19V18.57a1.15 1.15 0 0 1 .86-1.17h.19-.2a.91.91 0 0 1-.85-1V1.46a.91.91 0 0 1 .85-1h26.71a.91.91 0 0 1 .84 1v15a.9.9 0 0 1-.85 1h-.2.17a1.15 1.15 0 0 1 .87 1.17v36.85a1.18 1.18 0 0 1-.81 1.08Z"/><path fill="#92cfec" d="M15.34.5h2.27v56.09h-2.27z"/><path fill="#92cfec" d="M40.61 17.39h-.2.17-26.64.19-.2a.91.91 0 0 1-.85-1V1.46a.91.91 0 0 1 .85-1h26.75a.91.91 0 0 1 .84 1v15a.9.9 0 0 1-.91.93Z"/><path fill="#289ed8" d="M14.93 17.74h-1a.38.38 0 0 1 0-.75h1a.38.38 0 0 1 0 .75ZM37.7 17.76h-1.9a.38.38 0 1 1 0-.75h1.9a.38.38 0 1 1 0 .75ZM33.9 17.76H32a.38.38 0 1 1 0-.75h1.9a.38.38 0 1 1 0 .75ZM30.11 17.76h-1.9a.38.38 0 0 1 0-.75h1.9a.38.38 0 1 1 0 .75ZM26.3 17.75h-1.9a.38.38 0 0 1 0-.75h1.9a.38.38 0 0 1 0 .75ZM22.52 17.75h-1.9a.38.38 0 0 1 0-.75h1.9a.38.38 0 0 1 0 .75ZM18.73 17.75h-1.9a.38.38 0 0 1 0-.75h1.9a.38.38 0 0 1 0 .75ZM40.6 17.77h-1a.38.38 0 1 1 0-.75h1a.38.38 0 1 1 0 .75Z"/><rect width=".78" height="15.87" x="21.88" y="37.89" fill="#92cfec" rx=".36" ry=".36"/><rect width=".78" height="32.56" x="25.42" y="21.21" fill="#92cfec" rx=".36" ry=".36"/><path fill="#123456" d="m40.38 57.12-26.28-.06a1.62 1.62 0 0 1-1.55-1.69V18.51a1.77 1.77 0 0 1 .39-1.12 1.51 1.51 0 0 1-.39-1V1.46a1.52 1.52 0 0 1 .37-1 1.24 1.24 0 0 1 1-.45l26.7.05a1.41 1.41 0 0 1 1.35 1.46v15a1.53 1.53 0 0 1-.39 1 1.77 1.77 0 0 1 .39 1.12v36.85a1.62 1.62 0 0 1-1.59 1.63ZM14.12 17.87a.63.63 0 0 0-.55.69v36.85a.63.63 0 0 0 .55.69H40.4a.63.63 0 0 0 .55-.68V18.56a.76.76 0 0 0-.18-.51.49.49 0 0 0-.36-.18.5.5 0 0 1 0-1h.2a.3.3 0 0 0 .21-.09.51.51 0 0 0 .14-.36v-15c0-.25-.16-.46-.35-.46H13.92a.3.3 0 0 0-.22.11.53.53 0 0 0-.12.35v15c0 .25.16.46.35.46h.2a.5.5 0 0 1 0 1Z"/><circle cx="27.19" cy="8.81" r="4.98" fill="#279ed9"/><path fill="#92d0ee" d="m34.3 30.06-6.55 18.72 6.22-3.9 5-13.38Z"/><path fill="#123456" d="M27.75 49.28a.5.5 0 0 1-.47-.67l6.55-18.76a.49.49 0 0 1 .6-.32l4.7 1.53a.5.5 0 0 1 .32.65l-5.01 13.35a.5.5 0 0 1-.2.25l-6.22 3.9a.5.5 0 0 1-.27.07Zm6.86-18.63-5.92 17 4.87-3.05 4.74-12.78Z"/><path fill="#289ed8" d="m43.68 32.72-6.55 18.76-3.2-6.61 5-13.38Z"/><path fill="#123456" d="M37.13 51.97a.5.5 0 0 1-.45-.28l-3.2-6.63a.5.5 0 0 1 0-.39l5-13.38a.5.5 0 0 1 .59-.31l4.77 1.24a.5.5 0 0 1 .3.25.5.5 0 0 1 0 .39L37.6 51.64a.5.5 0 0 1-.44.33Zm-2.66-7.13 2.58 5.33 6-17.11-3.79-1Z"/><path fill="#92d0ee" d="m49.18 30.32 5.63 19-6.06-4.14-4.3-13.57Z"/><path fill="#123456" d="M54.81 49.82a.5.5 0 0 1-.28-.09l-6.06-4.14a.51.51 0 0 1-.19-.26l-4.31-13.57a.5.5 0 0 1 .34-.63l4.75-1.3a.5.5 0 0 1 .59.34l5.63 19a.5.5 0 0 1-.48.64Zm-5.64-5 4.76 3.25-5.1-17.19-3.76 1Z"/><path fill="#289ed8" d="m39.7 32.64 5.63 19 3.46-6.47-4.3-13.57Z"/><path fill="#123456" d="M45.3 52.14a.5.5 0 0 1-.43-.35l-5.63-19a.5.5 0 0 1 .36-.63l4.81-1a.5.5 0 0 1 .58.34l4.31 13.56a.49.49 0 0 1 0 .39l-3.46 6.47a.5.5 0 0 1-.54.22Zm-5-19.08 5.13 17.32 2.87-5.26-4.1-12.93Z"/><path fill="#92d0ee" d="M55.47 25.21a27.2 27.2 0 0 1-3.44-2.9 30.31 30.31 0 0 1 .8-4.05 1.87 1.87 0 0 0-2.22-2.35s-4.17.64-4.42.53-2.36-3.57-2.36-3.57a1.87 1.87 0 0 0-3.23-.09s-2.44 3.37-2.66 3.46-4.28-.82-4.28-.82a1.87 1.87 0 0 0-2.36 2.22s.66 4.12.56 4.34-3.56 2.44-3.56 2.44a1.87 1.87 0 0 0-.09 3.23s3.37 2.44 3.46 2.66-.82 4.28-.82 4.28a1.87 1.87 0 0 0 2.22 2.35s4.21-.62 4.48-.5 2.3 3.54 2.3 3.54a1.87 1.87 0 0 0 3.23.09s2.45-3.38 2.69-3.47 4.26.83 4.26.83a1.87 1.87 0 0 0 2.27-2.2s-.68-4.09-.58-4.3 3.62-2.48 3.62-2.48a1.87 1.87 0 0 0 .13-3.24Z"/><path fill="#123456" d="M41.45 41.48h-.07a2.34 2.34 0 0 1-2-1.24c-.84-1.37-1.81-2.9-2.12-3.32-.42 0-2.39.27-4.15.53a2.37 2.37 0 0 1-2.77-3c.35-1.58.72-3.39.79-3.95-.42-.37-1.9-1.48-3.25-2.45a2.37 2.37 0 0 1 .15-4.08c1.37-.87 2.9-1.88 3.35-2.22 0-.56-.3-2.4-.56-4a2.37 2.37 0 0 1 3-2.78c1.58.35 3.39.72 3.95.79.37-.42 1.48-1.9 2.45-3.25a2.29 2.29 0 0 1 2.08-1.12 2.34 2.34 0 0 1 2 1.24c.84 1.35 1.82 2.87 2.15 3.32.57 0 2.44-.28 4.11-.53a2.32 2.32 0 0 1 2.23.69 2.34 2.34 0 0 1 .55 2.3 37.8 37.8 0 0 0-.79 3.75 31.68 31.68 0 0 0 3.24 2.64 2.37 2.37 0 0 1-.14 4.09c-1.37.88-2.92 1.91-3.37 2.26 0 .56.31 2.38.58 4a2.37 2.37 0 0 1-3 2.78c-1.58-.35-3.37-.73-3.92-.8-.38.42-1.5 1.91-2.47 3.26a2.32 2.32 0 0 1-2.02 1.09Zm-4.15-5.53a.8.8 0 0 1 .36 0c.17.08.32.14 2.53 3.74a1.37 1.37 0 0 0 1.18.74 1.4 1.4 0 0 0 1.2-.65c2.56-3.53 2.78-3.62 2.94-3.68s.35-.14 4.54.81a1.38 1.38 0 0 0 1.36-.31 1.35 1.35 0 0 0 .39-1.31c-.71-4.27-.62-4.46-.55-4.62s.17-.37 3.81-2.7a1.38 1.38 0 0 0 .75-1.18 1.36 1.36 0 0 0-.65-1.2c-2.25-1.67-3.46-2.72-3.61-3.12-.05-.14-.18-.48.78-4.34a1.37 1.37 0 0 0-1.62-1.75c-4.35.67-4.59.56-4.74.5s-.33-.15-2.58-3.76a1.37 1.37 0 0 0-1.18-.75 1.39 1.39 0 0 0-1.21.65c-2.54 3.53-2.76 3.61-2.91 3.67s-.37.14-4.57-.8a1.37 1.37 0 0 0-1.37.31 1.35 1.35 0 0 0-.39 1.31c.69 4.3.6 4.51.53 4.67s-.16.35-3.79 2.65a1.37 1.37 0 0 0-.73 1.23 1.35 1.35 0 0 0 .65 1.2c3.52 2.54 3.61 2.76 3.66 2.91s.14.37-.8 4.57a1.37 1.37 0 0 0 .31 1.32 1.35 1.35 0 0 0 1.31.39 39.9 39.9 0 0 1 4.4-.5Zm8.95-20Z"/><path fill="#faa919" d="M50.41 23.84a9 9 0 0 1-17.54 1.9v.52a9 9 0 1 0 17.58-2.41Z"/><path fill="#ffcc05" d="M41.3 32.12a9 9 0 0 0 9.12-8.28 9 9 0 0 0-17.54 1.9 9 9 0 0 0 8.42 6.38Z"/><path fill="#123456" d="M41.82 35.92h-.19a9.48 9.48 0 1 1 9.67-9.3 9.49 9.49 0 0 1-9.48 9.3Zm0-18a8.5 8.5 0 0 0-.17 17 8.53 8.53 0 0 0 8.65-8.32 8.49 8.49 0 0 0-8.31-8.65Z"/><path fill="#289ed8" d="M46.86 22.38a1.12 1.12 0 0 0-1.57.19l-4.31 5.49-2-2.05a1.12 1.12 0 0 0-1.61 1.55l2.87 3a1.13 1.13 0 0 0 .81.34h.06a1.12 1.12 0 0 0 .82-.43l5.1-6.49a1.12 1.12 0 0 0-.17-1.6Z"/><path fill="#ffcc05" d="M45.37 10.06a1 1 0 0 1-1-.81l-.87-4.57a1.018 1.018 0 0 1 2-.38l.89 4.53A1 1 0 0 1 45.6 10ZM49.23 11.06a1 1 0 0 1-.93-1.46l2.33-4.61a1.002 1.002 0 0 1 1.79.9l-2.33 4.61a1 1 0 0 1-.86.56ZM53.13 13.16a1 1 0 0 1-.62-1.79l3.48-2.72a1.001 1.001 0 0 1 1.23 1.58l-3.48 2.72a1 1 0 0 1-.61.21Z"/></svg>