<svg xmlns="http://www.w3.org/2000/svg" id="Layer_1" data-name="Layer 1" viewBox="0 0 52.93 57"><path fill="#92d0ee" d="M52.44 15.18v39.1a2.09 2.09 0 0 1-2.14 2.14H7.37a2.09 2.09 0 0 1-2.14-2.14v-39.1A2.09 2.09 0 0 1 7.37 13H50.3a2.09 2.09 0 0 1 2.14 2.18Z"/><rect width="38.37" height="9.28" x="9.65" y="43.76" fill="#289ed8" rx="2.83" ry="2.83"/><path fill="#d9f0f9" d="M44.44 41.04H13.22"/><path fill="#123456" d="M44.44 41.54H13.22a.5.5 0 0 1 0-1h31.22a.5.5 0 0 1 0 1Z"/><path fill="#289ed8" d="M52.44 15.18v2.9H5.23v-2.9A2.09 2.09 0 0 1 7.37 13H50.3a2.09 2.09 0 0 1 2.14 2.18Z"/><path fill="#123456" d="M52.44 18.58H5.23a.5.5 0 0 1-.5-.5v-2.9a2.58 2.58 0 0 1 2.64-2.64H50.3a2.58 2.58 0 0 1 2.67 2.64v2.9a.5.5 0 0 1-.53.5Zm-46.7-1h46.23v-2.4a1.59 1.59 0 0 0-1.64-1.64H7.37a1.58 1.58 0 0 0-1.64 1.64Z"/><path fill="#123456" d="M50.3 56.92H7.37a2.58 2.58 0 0 1-2.64-2.64v-39.1a2.58 2.58 0 0 1 2.64-2.64H50.3a2.58 2.58 0 0 1 2.67 2.64v39.1a2.58 2.58 0 0 1-2.67 2.64ZM7.37 13.54a1.58 1.58 0 0 0-1.64 1.64v39.1a1.58 1.58 0 0 0 1.64 1.64H50.3a1.59 1.59 0 0 0 1.67-1.64v-39.1a1.59 1.59 0 0 0-1.64-1.64Z"/><path fill="#92cfeb" d="M40.15.5H17.52a1.21 1.21 0 0 0-1.21 1.21v13.8h25V1.71A1.21 1.21 0 0 0 40.15.5Z"/><path fill="#d8eff7" d="M16.31 15.51V41.04h25.04V15.51H16.31z"/><path fill="#92d0ee" d="M22.89 32.34a.5.5 0 0 1-.5-.5V20.33a.5.5 0 0 1 1 0v11.51a.5.5 0 0 1-.5.5ZM28.83 32.34a.5.5 0 0 1-.5-.5V20.33a.5.5 0 0 1 1 0v11.51a.5.5 0 0 1-.5.5ZM34.87 32.34a.5.5 0 0 1-.5-.5V20.33a.5.5 0 0 1 1 0v11.51a.5.5 0 0 1-.5.5Z"/><path fill="#289ed8" d="M41.36 15.88h-1a.38.38 0 0 1 0-.75h1a.375.375 0 0 1 0 .75ZM38.31 15.88h-2a.38.38 0 0 1 0-.75h2a.375.375 0 0 1 0 .75ZM34.31 15.88h-2a.38.38 0 0 1 0-.75h2a.375.375 0 0 1 0 .75ZM30.31 15.88h-2a.38.38 0 0 1 0-.75h2a.375.375 0 0 1 0 .75ZM26.31 15.88h-2a.38.38 0 0 1 0-.75h2a.375.375 0 0 1 0 .75ZM22.31 15.88h-2a.38.38 0 0 1 0-.75h2a.375.375 0 0 1 0 .75ZM18.31 15.88h-2a.38.38 0 0 1 0-.75h2a.375.375 0 0 1 0 .75Z"/><path fill="#123456" d="M41.36 41.54h-25a.5.5 0 0 1-.5-.5V1.71A1.71 1.71 0 0 1 17.52 0h22.63a1.71 1.71 0 0 1 1.71 1.71V41a.5.5 0 0 1-.5.54Zm-24.55-1h24V1.71a.71.71 0 0 0-.66-.71H17.52a.71.71 0 0 0-.71.71Z"/><rect width="8.79" height="8.79" x="24.44" y="3.52" fill="#289ed8" rx="4.4" ry="4.4"/><path fill="#92d0ee" d="M34.49 56.5H23.18a2.35 2.35 0 0 1-2.29-2.29v-24.9A2.35 2.35 0 0 1 23.18 27h11.3a2.35 2.35 0 0 1 2.29 2.29v24.9a2.35 2.35 0 0 1-2.28 2.31Z"/><path fill="#d9f0f9" d="M20.89 31.6h15.89v21.39H20.89z"/><path fill="#123456" d="M36.78 53.49H20.89a.5.5 0 0 1-.5-.5V31.6a.5.5 0 0 1 .5-.5h15.89a.5.5 0 0 1 .5.5V53a.5.5 0 0 1-.5.49Zm-15.39-1h14.89V32.1H21.39Z"/><path fill="#123456" d="M34.49 57H23.18a2.86 2.86 0 0 1-2.79-2.79v-24.9a2.86 2.86 0 0 1 2.79-2.79h11.3a2.86 2.86 0 0 1 2.79 2.79v24.9A2.86 2.86 0 0 1 34.49 57ZM23.18 27.52a1.86 1.86 0 0 0-1.79 1.79v24.9A1.86 1.86 0 0 0 23.18 56h11.3a1.86 1.86 0 0 0 1.79-1.79v-24.9a1.86 1.86 0 0 0-1.79-1.79Z"/><rect width="11.32" height="3.6" x="23.17" y="45.31" fill="#289ed8" rx=".84" ry=".84"/><circle cx="8.14" cy="15.6" r=".68" fill="#d9f0f9"/><circle cx="10.46" cy="15.6" r=".68" fill="#d9f0f9"/><circle cx="12.91" cy="15.6" r=".68" fill="#d9f0f9"/><path fill="#ffcc05" d="m16.56 52.85 12.2-7-12.45-7.27v4.67H8.15a1.115 1.115 0 0 0 0 2.23h.57a.81.81 0 1 1 0 1.62H5.89a1.035 1.035 0 0 0 0 2.07h2.83a.8.8 0 0 1 .76.55h7.08Z"/><path fill="#faa919" d="m30.97 47.31-2.25-1.48-12.2 7v-3.12H9.48a.79.79 0 0 1 .05.26.81.81 0 0 1-.81.81H1.57a1.065 1.065 0 0 0 0 2.13h14.74V56Z"/><path fill="#123456" d="M16.31 56.55a.5.5 0 0 1-.25-.07.5.5 0 0 1-.25-.43v-2.64H1.57a1.565 1.565 0 0 1 0-3.13h7.15a.31.31 0 1 0 0-.62H5.89a1.535 1.535 0 1 1 0-3.07h2.83a.31.31 0 1 0 0-.62h-.57a1.615 1.615 0 0 1 0-3.23h7.66v-4.16a.5.5 0 0 1 .76-.43l14.7 8.74a.5.5 0 0 1 0 .86l-14.7 8.73a.5.5 0 0 1-.26.07ZM1.57 51.28a.565.565 0 0 0 0 1.13h14.74a.5.5 0 0 1 .5.5v2.26l13.22-7.86-13.22-7.86v3.79a.5.5 0 0 1-.5.5H8.15a.615.615 0 0 0 0 1.23h.57a1.31 1.31 0 1 1 0 2.62H5.89a.535.535 0 1 0 0 1.07h2.83a1.31 1.31 0 1 1 0 2.62Z"/><rect width="2.17" height="2.17" x="1.28" y="46.99" fill="#ffcc05" rx=".99" ry=".99"/><path fill="#123456" d="M2.45 49.66h-.17a1.5 1.5 0 0 1-1.49-1.5V48a1.5 1.5 0 0 1 1.49-1.5h.18A1.5 1.5 0 0 1 3.97 48v.18a1.5 1.5 0 0 1-1.52 1.48Zm-.18-2.17a.5.5 0 0 0-.49.5v.18a.5.5 0 0 0 .49.5h.18a.5.5 0 0 0 .49-.5V48a.5.5 0 0 0-.49-.5Z"/><path fill="none" stroke="#289ed8" stroke-dasharray="2" stroke-linecap="round" stroke-linejoin="round" d="M16.31 15.51"/><path fill="#289ed8" d="M32.5 35.73a.77.77 0 0 0-1.08.13l-3 3.78-1.35-1.42a.77.77 0 0 0-1.1 1.07l2 2.05a.78.78 0 0 0 .56.24.77.77 0 0 0 .57-.29l3.52-4.47a.77.77 0 0 0-.12-1.09Z"/></svg>